<svg width="21" height="22" xmlns="http://www.w3.org/2000/svg" xmlns:xlink="http://www.w3.org/1999/xlink" overflow="hidden"><defs><clipPath id="clip0"><rect x="9" y="79" width="21" height="22"/></clipPath></defs><g clip-path="url(#clip0)" transform="translate(-9 -79)"><path d="M5.03125 17.9375 5.03125 3.0625 10.5 3.0625 10.5 7.65625 15.9688 7.65625 15.9688 17.9375 5.03125 17.9375ZM11.8125 3.60938 14.5469 6.34375 11.8125 6.34375 11.8125 3.60938ZM11.8125 1.75 3.71875 1.75 3.71875 19.25 17.2812 19.25 17.2812 6.5625 11.8125 1.75Z" fill="#FFFFFF" transform="matrix(1 0 0 1.04762 9 79)"/><path d="M6.34375 9.84375 14.6562 9.84375 14.6562 10.7188 6.34375 10.7188Z" fill="#FFFFFF" transform="matrix(1 0 0 1.04762 9 79)"/><path d="M6.34375 8.09375 9.1875 8.09375 9.1875 8.96875 6.34375 8.96875Z" fill="#FFFFFF" transform="matrix(1 0 0 1.04762 9 79)"/><path d="M6.34375 11.5938 14.6562 11.5938 14.6562 12.4688 6.34375 12.4688Z" fill="#FFFFFF" transform="matrix(1 0 0 1.04762 9 79)"/><path d="M6.34375 13.3438 14.6562 13.3438 14.6562 14.2188 6.34375 14.2188Z" fill="#FFFFFF" transform="matrix(1 0 0 1.04762 9 79)"/><path d="M6.34375 15.0938 14.6562 15.0938 14.6562 15.9688 6.34375 15.9688Z" fill="#FFFFFF" transform="matrix(1 0 0 1.04762 9 79)"/></g></svg>