<svg width="22" height="22" xmlns="http://www.w3.org/2000/svg" xmlns:xlink="http://www.w3.org/1999/xlink" overflow="hidden"><defs><clipPath id="clip0"><rect x="9" y="121" width="22" height="22"/></clipPath></defs><g clip-path="url(#clip0)" transform="translate(-9 -121)"><path d="M15.1875 136.469C15.1875 137.355 14.4693 138.073 13.5833 138.073 12.6974 138.073 11.9792 137.355 11.9792 136.469 11.9792 135.583 12.6974 134.865 13.5833 134.865 14.4693 134.865 15.1875 135.583 15.1875 136.469Z" fill="#FFFFFF"/><path d="M28.4792 136.469C28.4792 137.355 27.761 138.073 26.875 138.073 25.989 138.073 25.2708 137.355 25.2708 136.469 25.2708 135.583 25.989 134.865 26.875 134.865 27.761 134.865 28.4792 135.583 28.4792 136.469Z" fill="#FFFFFF"/><path d="M24.5833 131.427 24.5833 129.135 25.9583 129.135C26.3708 129.135 26.7375 129.41 26.8292 129.8L27.2875 131.381C27.2875 131.404 27.3104 131.404 27.3104 131.427L24.5833 131.427ZM29.7167 132.527 28.5021 131.61C28.3417 131.496 28.2271 131.312 28.1812 131.129L27.7229 129.548C27.4937 128.769 26.7833 128.219 25.9583 128.219L23.6667 128.219 23.6667 131.427 23.6667 132.802 23.6667 136.469 24.5833 136.469C24.5833 135.208 25.6146 134.177 26.875 134.177 28.1354 134.177 29.1667 135.208 29.1667 136.469 29.6708 136.469 30.0833 136.056 30.0833 135.552L30.0833 133.26C30.0833 132.962 29.9458 132.71 29.7167 132.527Z" fill="#FFFFFF"/><path d="M9.91667 136.469 11.2917 136.469C11.2917 135.208 12.3229 134.177 13.5833 134.177 14.8438 134.177 15.875 135.208 15.875 136.469L22.75 136.469 22.75 133.26 9.91667 133.26 9.91667 136.469Z" fill="#FFFFFF"/><path d="M24.5833 127.302 24.5833 125.927 20.9167 125.927 20 126.844 11.9792 126.844 9.91667 126.844 9.91667 130.281 11.9792 132.344 22.75 132.344 22.75 128.219 23.6667 127.302Z" fill="#FFFFFF"/></g></svg>