<svg width="22" height="21" xmlns="http://www.w3.org/2000/svg" xmlns:xlink="http://www.w3.org/1999/xlink" overflow="hidden"><defs><clipPath id="clip0"><rect x="9" y="166" width="22" height="21"/></clipPath></defs><g clip-path="url(#clip0)" transform="translate(-9 -166)"><path d="M16.3625 4.76875C15.8375 4.76875 15.4 4.33125 15.4 3.80625 15.4 3.28125 15.8375 2.84375 16.3625 2.84375 16.8875 2.84375 17.325 3.28125 17.325 3.80625L17.325 3.80625C17.325 4.33125 16.8875 4.76875 16.3625 4.76875 16.3625 4.76875 16.3625 4.76875 16.3625 4.76875ZM16.3625 1.53125C15.6188 1.53125 14.9187 1.90312 14.5031 2.51562 14.0875 3.12812 14 3.91562 14.2625 4.61562L15.2906 6.86875 16.1656 8.72813C16.2312 8.8375 16.3625 8.88125 16.45 8.81563 16.4937 8.79375 16.5156 8.77187 16.5375 8.72813L17.4125 6.86875 18.4406 4.61562C18.7031 3.91562 18.6156 3.12812 18.2 2.51562 17.8062 1.90312 17.1062 1.53125 16.3625 1.53125Z" fill="#FFFFFF" transform="matrix(1.04762 0 0 1 9 166)"/><path d="M5.20625 13.5188C4.55 13.5188 4.00312 12.9719 4.00312 12.3156 4.00312 11.6594 4.55 11.1125 5.20625 11.1125 5.8625 11.1125 6.40937 11.6594 6.40937 12.3156 6.40937 12.3156 6.40937 12.3156 6.40937 12.3156 6.40937 12.9719 5.8625 13.5188 5.20625 13.5188 5.20625 13.5188 5.20625 13.5188 5.20625 13.5188L5.20625 13.5188ZM5.20625 9.51562C4.2875 9.51562 3.4125 9.975 2.8875 10.7406 2.3625 11.5062 2.25312 12.4906 2.60312 13.3438L3.87188 16.1438 4.96563 18.4406C5.03125 18.5719 5.20625 18.6156 5.3375 18.55 5.38125 18.5281 5.425 18.4844 5.44688 18.4406L6.54063 16.1438 7.80938 13.3438C8.1375 12.4906 8.02812 11.5062 7.525 10.7406 7 9.975 6.125 9.51562 5.20625 9.51562L5.20625 9.51562Z" fill="#FFFFFF" transform="matrix(1.04762 0 0 1 9 166)"/><path d="M8.26875 18.5938 7.7 18.5938C7.4375 18.5938 7.19688 18.5938 6.95625 18.5938L6.95625 17.2812C7.175 17.2812 7.4375 17.2812 7.7 17.2812L8.26875 17.2812 8.26875 18.5938Z" fill="#FFFFFF" transform="matrix(1.04762 0 0 1 9 166)"/><path d="M9.16563 18.5938 9.16563 17.2812C9.64687 17.2812 10.0625 17.2812 10.4563 17.2594L10.5 18.5719C10.0844 18.5938 9.64687 18.5938 9.16563 18.5938Z" fill="#FFFFFF" transform="matrix(1.04762 0 0 1 9 166)"/><path d="M11.375 18.5281 11.3094 17.2156C11.7688 17.1938 12.2063 17.1719 12.5781 17.1281L12.7094 18.4406C12.3156 18.4844 11.8562 18.5063 11.375 18.5281L11.375 18.5281Z" fill="#FFFFFF" transform="matrix(1.04762 0 0 1 9 166)"/><path d="M13.6281 18.3313 13.4313 17.0406C13.8469 16.975 14.2406 16.9094 14.6344 16.8L14.9844 18.0688C14.525 18.1781 14.0875 18.2656 13.6281 18.3313Z" fill="#FFFFFF" transform="matrix(1.04762 0 0 1 9 166)"/><path d="M15.9031 17.7406 15.3781 16.5375C15.6625 16.45 15.9031 16.2531 16.0781 16.0125L17.2375 16.6469C16.9094 17.15 16.45 17.5219 15.9031 17.7406L15.9031 17.7406Z" fill="#FFFFFF" transform="matrix(1.04762 0 0 1 9 166)"/><path d="M16.1 15.575C16.0562 15.2906 15.925 15.0062 15.7281 14.8094L16.6469 13.8906C17.0625 14.3063 17.325 14.8313 17.3906 15.4219L16.1 15.575Z" fill="#FFFFFF" transform="matrix(1.04762 0 0 1 9 166)"/><path d="M15.1813 14.4156C14.8313 14.2406 14.4594 14.0875 14.0875 13.9781L14.4594 12.7312C14.9187 12.8625 15.3781 13.0375 15.7937 13.2562L15.1813 14.4156Z" fill="#FFFFFF" transform="matrix(1.04762 0 0 1 9 166)"/><path d="M13.2562 13.7594 12.9062 13.6719C12.6 13.5844 12.2719 13.5188 11.9656 13.4313L12.3156 12.1625C12.6 12.25 12.9062 12.3156 13.2125 12.4031L13.5625 12.4906 13.2562 13.7594Z" fill="#FFFFFF" transform="matrix(1.04762 0 0 1 9 166)"/><path d="M11.0687 13.125C10.5437 12.9281 10.0625 12.6 9.7125 12.1625L10.7844 11.4187C10.9812 11.6594 11.2656 11.8344 11.55 11.9219L11.0687 13.125Z" fill="#FFFFFF" transform="matrix(1.04762 0 0 1 9 166)"/><path d="M10.6969 10.9812 9.38438 10.8938C9.42812 10.2594 9.77812 9.69063 10.2812 9.31875L11.0906 10.3469C10.6969 10.675 10.6969 10.9156 10.6969 10.9812L10.6969 10.9812Z" fill="#FFFFFF" transform="matrix(1.04762 0 0 1 9 166)"/><path d="M11.7031 10.0188 11.1781 8.81563C11.6156 8.61875 12.075 8.46562 12.5344 8.35625L12.8406 9.625C12.4469 9.73438 12.075 9.86562 11.7031 10.0188L11.7031 10.0188Z" fill="#FFFFFF" transform="matrix(1.04762 0 0 1 9 166)"/><path d="M13.65 9.47188 13.4313 8.18125C14 8.09375 14.4812 8.02812 14.7875 8.00625L14.8969 9.31875C14.6781 9.34062 14.1969 9.38438 13.65 9.47188L13.65 9.47188Z" fill="#FFFFFF" transform="matrix(1.04762 0 0 1 9 166)"/></g></svg>