<svg width="22" height="22" xmlns="http://www.w3.org/2000/svg" xmlns:xlink="http://www.w3.org/1999/xlink" overflow="hidden"><defs><clipPath id="clip0"><rect x="9" y="209" width="22" height="22"/></clipPath></defs><g clip-path="url(#clip0)" transform="translate(-9 -209)"><path d="M12.7812 227.975C12.6208 228.135 12.4146 228.181 12.2083 228.09 12.0021 227.998 11.8875 227.815 11.8875 227.608 11.8875 227.402 12.025 227.196 12.2083 227.127 12.4146 227.035 12.6208 227.081 12.7812 227.242 12.9875 227.425 12.9875 227.769 12.7812 227.975ZM28.9604 212.873 27.1042 214.729 25.6375 214.34 25.2708 212.896 27.1271 211.04C26.0271 210.627 24.7896 210.879 23.9188 211.658 23.0479 212.46 22.7042 213.652 23.0021 214.798L11.3146 226.485C10.9021 226.875 10.7417 227.471 10.8792 228.021 11.0167 228.571 11.4521 229.006 12.0021 229.144 12.5521 229.281 13.125 229.121 13.5375 228.708L25.225 217.021C26.3708 217.319 27.5625 216.975 28.3646 216.104 29.1438 215.233 29.3958 213.973 28.9604 212.873Z" fill="#FFFFFF"/><path d="M28.8687 226.485 22.9562 220.573 20.5729 222.956 26.3021 228.685 26.5083 228.892 26.5312 228.869C27.1958 229.35 28.1125 229.258 28.6854 228.685 29.2583 228.09 29.3271 227.173 28.8687 226.485L28.8687 226.485Z" fill="#FFFFFF"/><path d="M14.1792 213.538 14.2021 213.515 13.6063 212.415 11.6354 210.833 10.8333 211.635 12.4146 213.606 13.5146 214.202 13.5375 214.179 17.9146 218.556 18.5563 217.915Z" fill="#FFFFFF"/></g></svg>