<svg width="21" height="21" xmlns="http://www.w3.org/2000/svg" xmlns:xlink="http://www.w3.org/1999/xlink" overflow="hidden"><defs><clipPath id="clip0"><rect x="9" y="257" width="21" height="21"/></clipPath></defs><g clip-path="url(#clip0)" transform="translate(-9 -257)"><path d="M13.375 259.844 12.0625 259.844 12.0625 275.156 27.1562 275.156 27.1562 273.844 13.375 273.844 13.375 259.844Z" fill="#FFFFFF"/><path d="M27.1562 272.531 23.875 272.531 23.875 259.844 27.1562 259.844Z" fill="#FFFFFF"/><path d="M22.5625 272.531 19.2812 272.531 19.2812 264.219 22.5625 264.219Z" fill="#FFFFFF"/><path d="M17.9688 272.531 14.6875 272.531 14.6875 268.156 17.9688 268.156Z" fill="#FFFFFF"/><path d="M21.6875 262.849 21.6875 259.844 18.6819 259.844 19.8763 261.038 14.5978 266.317 15.2147 266.933 20.4931 261.657 21.6875 262.849Z" fill="#FFFFFF"/></g></svg>